<?xml version="1.0" standalone="no"?>
<!DOCTYPE svg PUBLIC "-//W3C//DTD SVG 20010904//EN"
 "http://www.w3.org/TR/2001/REC-SVG-20010904/DTD/svg10.dtd">
<svg version="1.0" xmlns="http://www.w3.org/2000/svg"
 width="512.000000pt" height="512.000000pt" viewBox="0 0 512.000000 512.000000"
 preserveAspectRatio="xMidYMid meet">
<metadata>
Created by potrace 1.11, written by Peter Selinger 2001-2013
</metadata>
<g transform="translate(0.000000,512.000000) scale(0.100000,-0.100000)"
fill="#000000" stroke="none">
<path d="M215 5095 c-16 -13 -34 -25 -40 -25 -5 0 -21 -12 -34 -25 -13 -14
-27 -25 -32 -25 -5 0 -31 -34 -59 -76 l-50 -76 0 -2256 c1 -1561 4 -2269 11
-2297 6 -22 12 -50 13 -62 0 -11 4 -19 7 -17 7 4 23 -26 21 -38 -1 -5 3 -8 8
-8 6 0 10 -4 10 -10 0 -13 63 -76 73 -72 5 1 6 -2 2 -8 -3 -5 -1 -10 5 -10 17
0 40 -26 32 -35 -4 -5 -2 -5 4 -2 6 4 36 -7 65 -23 l54 -30 2292 0 c2024 0
2293 2 2307 15 8 8 17 15 21 15 4 0 12 6 19 13 8 6 34 30 60 51 25 21 46 45
46 52 0 8 8 14 17 14 9 0 13 3 10 6 -4 4 5 20 18 36 l25 30 -2 2306 -3 2307
-44 65 c-53 78 -92 118 -147 153 -96 60 68 56 -2412 57 l-2267 0 -30 -25z"/>
</g>
</svg>
